<svg width="35" height="42" viewBox="0 0 35 42" fill="none" xmlns="http://www.w3.org/2000/svg">
<path d="M6.47304 31.0176C6.47304 32.0883 7.34371 32.9623 8.41495 32.9623H10.6349V38.4714C10.6349 39.867 11.7518 41.0063 13.1239 41.0063C14.5005 41.0063 15.6128 39.8716 15.6128 38.4714V32.9577H19.4875V38.4668C19.4875 39.8624 20.6043 41.0018 21.9764 41.0018C23.3531 41.0018 24.4653 39.867 24.4653 38.4668V32.9577H26.6853C27.7566 32.9577 28.6272 32.0838 28.6272 31.013V12.9299H6.47304V31.0176ZM22.7514 3.55891L24.7981 0.584709C24.9166 0.410833 24.8893 0.177473 24.7297 0.0630805C24.5702 -0.0467361 24.3423 0.00817249 24.2237 0.182049L22.0995 3.27521C20.7 2.72156 19.141 2.41498 17.5045 2.41498C15.8681 2.41498 14.3091 2.72156 12.9096 3.27521L10.7854 0.186624C10.6668 0.0127481 10.4389 -0.0467358 10.2794 0.0676564C10.1198 0.177473 10.0925 0.406257 10.211 0.589285L12.2577 3.56348C9.00299 5.08261 6.72375 7.96072 6.43201 11.3239H28.5862C28.2853 7.95614 26.0016 5.07804 22.7514 3.55891ZM12.8276 8.24899C12.585 8.24899 12.3479 8.1768 12.1463 8.04155C11.9446 7.9063 11.7875 7.71407 11.6947 7.48916C11.6019 7.26425 11.5776 7.01676 11.6249 6.778C11.6722 6.53924 11.789 6.31992 11.9605 6.14778C12.132 5.97564 12.3505 5.85841 12.5883 5.81092C12.8262 5.76343 13.0727 5.7878 13.2968 5.88096C13.5209 5.97412 13.7124 6.13188 13.8471 6.3343C13.9819 6.53671 14.0538 6.77469 14.0538 7.01813C14.0529 7.34431 13.9235 7.6569 13.6937 7.88754C13.4639 8.11819 13.1525 8.24814 12.8276 8.24899ZM22.3274 8.24899C22.0849 8.24899 21.8478 8.1768 21.6462 8.04155C21.4445 7.9063 21.2873 7.71407 21.1945 7.48916C21.1017 7.26425 21.0774 7.01676 21.1247 6.778C21.1721 6.53924 21.2889 6.31992 21.4603 6.14778C21.6318 5.97564 21.8503 5.85841 22.0882 5.81092C22.3261 5.76343 22.5726 5.7878 22.7967 5.88096C23.0207 5.97412 23.2123 6.13188 23.347 6.3343C23.4817 6.53671 23.5536 6.77469 23.5536 7.01813C23.5528 7.34431 23.4233 7.6569 23.1936 7.88754C22.9638 8.11819 22.6524 8.24814 22.3274 8.24899ZM32.5111 12.8567C31.1344 12.8567 30.0221 13.9915 30.0221 15.3916V25.2934C30.0221 26.689 31.139 27.8284 32.5111 27.8284C33.8877 27.8284 35 26.6936 35 25.2934V15.3871C35.0045 13.9869 33.8923 12.8567 32.5111 12.8567ZM2.48893 12.8567C1.11227 12.8567 0 13.9915 0 15.3916V25.2934C0 26.689 1.11683 27.8284 2.48893 27.8284C3.86559 27.8284 4.97786 26.6936 4.97786 25.2934V15.3871C4.97786 13.9869 3.86103 12.8567 2.48893 12.8567Z" fill="#4D5B67"/>
</svg>
