<svg width="145" height="32" viewBox="0 0 145 32" fill="none" xmlns="http://www.w3.org/2000/svg">
<path fill-rule="evenodd" clip-rule="evenodd" d="M0 11.7314L21.2653 11.7354V3.76904L0 11.7314Z" fill="#6F7275"/>
<path fill-rule="evenodd" clip-rule="evenodd" d="M21.2653 3.76755V31.893L31.3095 0.00634766L21.2653 3.76755Z" fill="#6F7275"/>
<path fill-rule="evenodd" clip-rule="evenodd" d="M21.2669 11.735L13.2258 11.7334L21.2669 31.8932V11.735Z" fill="#6F7275"/>
<path fill-rule="evenodd" clip-rule="evenodd" d="M0 11.731L15.2867 16.9061L13.2251 11.7334L0 11.731Z" fill="#6F7275"/>
<path d="M48.7153 24.4908C48.5985 24.6077 48.4045 24.753 48.1326 24.9275C47.8607 25.102 47.506 25.2765 47.0774 25.4518C46.6489 25.6272 46.1059 25.7765 45.4752 25.9031C44.8446 26.0297 44.1198 26.0922 43.3049 26.0922C41.7319 26.0922 40.3724 25.8406 39.2271 25.335C38.0819 24.8293 37.1347 24.1175 36.3863 23.223C35.638 22.3286 35.0901 21.2523 34.7403 20.0186C34.3905 18.7849 34.216 17.4311 34.216 15.9555C34.216 14.4799 34.4051 13.1147 34.7841 11.8631C35.1632 10.6116 35.7305 9.52802 36.4886 8.61491C37.2467 7.7018 38.1931 6.98835 39.3294 6.47377C40.4657 5.95918 41.8001 5.7027 43.3341 5.7027C44.0914 5.7027 44.7764 5.77088 45.3876 5.90561C45.9987 6.04035 46.532 6.20186 46.9898 6.38611C47.4475 6.57035 47.8258 6.76434 48.1261 6.96888L48.8103 7.47859C48.9848 7.63443 49.135 7.81949 49.2616 8.03214C49.3882 8.24479 49.4507 8.47855 49.4507 8.73016C49.4507 9.11976 49.3046 9.50691 49.014 9.8957C48.7251 10.2818 48.4036 10.6424 48.053 10.9736L47.2657 10.2593C46.9735 10.0158 46.6489 9.80317 46.2901 9.61C45.9314 9.41682 45.5231 9.27073 45.067 9.14411C44.6108 9.01749 44.093 8.95499 43.5378 8.95499C42.5476 8.95499 41.7173 9.15466 41.0477 9.55237C40.378 9.95008 39.8383 10.4695 39.4308 11.1107C39.0234 11.7519 38.7328 12.4849 38.5567 13.3103C38.3806 14.1358 38.2945 14.9758 38.2945 15.8297C38.2945 16.7428 38.3822 17.6153 38.5567 18.4513C38.7312 19.2873 39.0323 20.0243 39.4601 20.6647C39.8878 21.3051 40.4454 21.8205 41.1345 22.2085C41.8236 22.5965 42.6831 22.7912 43.7123 22.7912C44.2561 22.7912 44.7561 22.7231 45.2123 22.5883C45.6319 22.4674 46.0372 22.3011 46.4208 22.0924C46.744 21.9163 47.051 21.7117 47.338 21.4812L47.9938 20.9277L48.4012 21.4147C48.5577 21.6107 48.7034 21.815 48.8379 22.0267C48.9691 22.2319 49.086 22.4458 49.1877 22.6671C49.2851 22.8813 49.3338 23.0753 49.3338 23.2498C49.3338 23.5014 49.2851 23.7157 49.1877 23.8992C49.0903 24.0826 48.9361 24.2685 48.7218 24.4819L48.7153 24.4908ZM63.7261 22.2572C63.7261 23.8009 63.9501 24.9243 64.3997 25.6272C64.0483 25.7635 63.7212 25.8625 63.4176 25.9194C63.1038 25.9789 62.785 26.0083 62.4656 26.007C61.7627 26.007 61.2294 25.8707 60.8682 25.5971C60.507 25.3236 60.2773 24.9332 60.1799 24.4251C59.7498 24.8748 59.1832 25.2554 58.4803 25.5695C57.7775 25.8836 56.9171 26.0379 55.9017 26.0379C55.3667 26.0369 54.8343 25.9634 54.319 25.8195C53.7914 25.6734 53.3125 25.4348 52.8824 25.1036C52.4522 24.7725 52.1008 24.3293 51.8272 23.7742C51.5537 23.219 51.4173 22.5429 51.4173 21.745C51.4173 20.7516 51.6568 19.9432 52.1357 19.3206C52.6148 18.6967 53.2314 18.1917 53.9375 17.845C54.668 17.4847 55.4415 17.2363 56.2816 17.1007L58.5964 16.8378L59.2863 16.8086H59.9162V16.2753C59.9162 15.5245 59.7157 14.9913 59.3155 14.6747C58.9154 14.3582 58.2653 14.1999 57.3676 14.1999C56.5275 14.1999 55.78 14.3379 55.1258 14.6098C54.4716 14.8817 53.8312 15.1958 53.2062 15.5472C52.9327 15.2145 52.7127 14.8492 52.5472 14.4483C52.3816 14.0473 52.298 13.7502 52.298 13.5554C52.298 13.2819 52.449 13.0181 52.7525 12.7641C53.0561 12.51 53.4708 12.2803 53.9976 12.0758C54.5243 11.8713 55.1307 11.7049 55.8157 11.5774C56.5007 11.45 57.2223 11.3867 57.9844 11.3867C59.0396 11.3867 59.9324 11.4947 60.6653 11.7089C61.3982 11.9232 61.994 12.256 62.4526 12.7048C62.9112 13.1537 63.2399 13.7161 63.4347 14.3898C63.6295 15.0635 63.7269 15.8508 63.7269 16.7485L63.7261 22.2572ZM59.9762 18.858H59.5663C59.4284 18.858 59.292 18.8685 59.1565 18.8872L57.706 19.0625C57.219 19.1412 56.8018 19.2776 56.4317 19.4732C56.0616 19.6688 55.7581 19.9229 55.5227 20.2362C55.2873 20.5495 55.1712 20.9504 55.1712 21.4374C55.1712 21.9845 55.3271 22.4479 55.6404 22.8294C55.9537 23.2109 56.4804 23.4008 57.2231 23.4008C57.5801 23.403 57.9355 23.3535 58.2782 23.2539C58.5869 23.1667 58.8825 23.0387 59.1573 22.8732C59.4113 22.7166 59.6118 22.5461 59.7579 22.3603C59.904 22.1744 59.977 22.0031 59.977 21.8473L59.9762 18.858ZM71.0228 13.0855C71.3345 12.7146 71.8215 12.3388 72.4838 11.9492C73.1461 11.5596 73.9829 11.3778 74.9959 11.3778C75.7166 11.3778 76.4033 11.4995 77.0558 11.743C77.7084 11.9865 78.2871 12.3842 78.7928 12.9297C79.2984 13.4751 79.7035 14.1999 80.0054 15.0984C80.3073 15.9969 80.4583 17.1016 80.4583 18.4099C80.4583 19.9334 80.283 21.189 79.9323 22.176C79.5817 23.163 79.1207 23.9454 78.5744 24.5201C78.0282 25.0947 77.4008 25.494 76.7198 25.7359C76.0388 25.9778 75.3562 26.0874 74.6744 26.0874C74.1095 26.0874 73.6177 26.0241 73.1997 25.8966C72.7817 25.7692 72.4254 25.6288 72.1332 25.4713C71.841 25.3139 71.617 25.1588 71.4619 25.0022L71.1697 24.68V31.8834H67.1926V11.7868L67.5465 11.7284C67.6837 11.7072 67.8219 11.6926 67.9605 11.6846L68.5205 11.67C69.1698 11.67 69.7217 11.7779 70.1738 11.9922C70.6259 12.2065 70.9043 12.5604 71.0301 13.0766L71.0228 13.0855ZM76.2986 18.5073C76.2986 17.9213 76.2499 17.3751 76.1525 16.8662C76.0551 16.3573 75.8952 15.919 75.672 15.5472C75.4549 15.1824 75.1426 14.8836 74.7686 14.6828C74.3896 14.4775 73.9285 14.3744 73.3847 14.3744C72.569 14.3744 72.0009 14.531 71.6803 14.8435C71.3597 15.156 71.1998 15.4985 71.1998 15.8695V22.0819C71.354 22.2385 71.6316 22.4228 72.0301 22.6387C72.4286 22.8546 72.8904 22.9609 73.414 22.9609C74.4042 22.9609 75.133 22.5713 75.5997 21.7889C76.0664 21.0064 76.2994 19.9139 76.2994 18.5065L76.2986 18.5073ZM83.5353 23.5396C83.3989 23.15 83.3104 22.7385 83.2715 22.3083L83.213 21.0178V7.42908L83.653 7.37064L84.0913 7.32681L84.5604 7.3122C84.8749 7.31239 85.1887 7.34174 85.4978 7.39986C85.8029 7.45535 86.0925 7.57516 86.3477 7.75131C86.6091 7.93607 86.8205 8.18291 86.9629 8.46962C87.1195 8.77237 87.1983 9.16764 87.1983 9.65626V11.7365H91.3012V14.6966H87.1983V20.9464C87.1983 22.3099 87.7551 22.9901 88.8686 22.9901C89.1422 22.9901 89.4003 22.9463 89.6454 22.8586C89.8905 22.771 90.108 22.6736 90.3045 22.5664C90.4848 22.469 90.6564 22.3563 90.8174 22.2296L91.1259 21.9658C91.418 22.396 91.6429 22.7677 91.7995 23.0818C91.9562 23.3959 92.0349 23.6906 92.0349 23.9665C92.0349 24.223 91.9326 24.4746 91.7265 24.7214C91.5203 24.9681 91.233 25.1946 90.8621 25.4015C90.4911 25.6085 90.0423 25.7749 89.5147 25.9047C88.9482 26.0374 88.3678 26.102 87.7859 26.0971C86.5741 26.0971 85.6318 25.8617 84.9581 25.3934C84.2999 24.9449 83.802 24.298 83.5369 23.5469L83.5353 23.5396ZM101.394 23.1581C101.884 23.1581 102.315 23.1045 102.689 22.9958C103.062 22.887 103.395 22.7572 103.687 22.6005C103.979 22.4439 104.236 22.2734 104.452 22.0875L105.04 21.5746C105.315 21.9298 105.561 22.3072 105.775 22.7028C106.029 23.1622 106.156 23.5388 106.156 23.8391C106.156 24.2693 105.913 24.6589 105.424 25.0111C105.014 25.3236 104.432 25.5923 103.681 25.8171C102.929 26.0419 102.044 26.1539 101.029 26.1539C100.11 26.1539 99.2067 26.037 98.3179 25.8025C97.4291 25.5679 96.6378 25.158 95.9446 24.572C95.2515 23.986 94.689 23.1922 94.2588 22.2133C93.8287 21.2345 93.6144 19.9813 93.6144 18.4773C93.6144 17.2468 93.8051 16.1868 94.1858 15.2981C94.5664 14.4093 95.0745 13.6715 95.7101 13.0855C96.3456 12.4995 97.0623 12.0709 97.8634 11.795C98.6645 11.519 99.4851 11.3851 100.325 11.3851C101.419 11.3851 102.346 11.5555 103.109 11.898C103.872 12.2406 104.491 12.6991 104.969 13.2754C105.448 13.8517 105.795 14.5108 106.01 15.2534C106.225 15.9961 106.332 16.7769 106.332 17.5975V18.0074L106.318 18.5057L106.288 19.0187C106.282 19.1515 106.267 19.2838 106.245 19.4148H97.6004C97.6791 20.4894 98.0119 21.383 98.6004 22.0965C99.1888 22.8099 100.118 23.1654 101.392 23.1654L101.394 23.1581ZM102.729 17.2087C102.729 16.2712 102.547 15.5091 102.184 14.9231C101.82 14.3371 101.167 14.0441 100.224 14.0441C99.4185 14.0441 98.7749 14.3225 98.2944 14.8801C97.8139 15.4377 97.5639 16.2136 97.5639 17.2095H102.721L102.729 17.2087ZM113.269 13.1504C113.386 12.9759 113.542 12.7827 113.738 12.5693C113.949 12.3433 114.191 12.1477 114.456 11.9881C114.738 11.8136 115.052 11.6683 115.393 11.5523C115.748 11.4339 116.119 11.3749 116.492 11.3778C116.728 11.3778 116.976 11.3973 117.239 11.4362C117.502 11.4752 117.746 11.5482 117.971 11.6554C118.196 11.7625 118.377 11.8989 118.513 12.0912C118.65 12.2836 118.719 12.5027 118.719 12.773C118.719 13.1991 118.611 13.6886 118.397 14.2421C118.182 14.7956 117.966 15.2664 117.752 15.6576C117.427 15.3841 117.087 15.1739 116.755 15.0278C116.424 14.8817 116.033 14.8086 115.583 14.8086C114.978 14.8086 114.47 14.9848 114.06 15.3362C113.65 15.6877 113.443 16.1097 113.443 16.6V26.0849H109.466V11.7958L109.817 11.7373C109.954 11.7162 110.091 11.7015 110.228 11.6935L110.785 11.6789C111.41 11.6789 111.952 11.8006 112.411 12.0417C112.871 12.2828 113.158 12.6561 113.276 13.1594L113.269 13.1504ZM124.6 13.1504C124.718 12.9759 124.874 12.7827 125.069 12.5693C125.281 12.3433 125.522 12.1477 125.788 11.9881C126.07 11.8136 126.382 11.6683 126.725 11.5523C127.079 11.4339 127.45 11.3749 127.824 11.3778C128.074 11.3793 128.323 11.3988 128.571 11.4362C128.834 11.4752 129.079 11.5482 129.304 11.6554C129.518 11.7535 129.704 11.9032 129.846 12.0912C129.982 12.2755 130.051 12.5027 130.051 12.773C130.051 13.1991 129.943 13.6886 129.729 14.2421C129.515 14.7956 129.299 15.2664 129.084 15.6576C128.751 15.3841 128.418 15.1739 128.088 15.0278C127.757 14.8817 127.365 14.8086 126.916 14.8086C126.309 14.8086 125.802 14.9848 125.391 15.3362C124.981 15.6877 124.776 16.1097 124.776 16.6V26.0849H120.799V11.7958L121.151 11.7373C121.287 11.7162 121.424 11.7015 121.561 11.6935L122.118 11.6789C122.743 11.6789 123.285 11.8006 123.744 12.0417C123.963 12.1508 124.154 12.308 124.304 12.5016C124.454 12.6951 124.558 12.92 124.608 13.1594L124.6 13.1504ZM143.619 22.2491C143.619 23.7928 143.843 24.9162 144.292 25.619C143.941 25.7554 143.614 25.8544 143.31 25.9112C143.007 25.9681 142.689 25.9989 142.357 25.9989C141.655 25.9989 141.122 25.8625 140.761 25.589C140.4 25.3155 140.168 24.9251 140.071 24.417C139.641 24.8666 139.075 25.2473 138.371 25.5614C137.668 25.8755 136.808 26.0297 135.793 26.0297C135.265 26.0297 134.738 25.9486 134.21 25.8106C133.689 25.6675 133.202 25.4243 132.774 25.0947C132.344 24.7636 131.993 24.3204 131.719 23.7652C131.446 23.2101 131.309 22.534 131.309 21.7361C131.309 20.7426 131.548 19.9342 132.027 19.3117C132.506 18.6892 133.106 18.1965 133.829 17.8361C134.551 17.4757 135.333 17.2274 136.174 17.0918L138.489 16.8288L139.177 16.7996H139.807V16.2664C139.807 15.5156 139.607 14.9823 139.207 14.6658C138.806 14.3492 138.156 14.191 137.259 14.191C136.419 14.191 135.672 14.3289 135.018 14.6009C134.361 14.8757 133.72 15.1888 133.099 15.5383C132.825 15.2055 132.604 14.8403 132.439 14.4393C132.274 14.0384 132.191 13.7413 132.191 13.5465C132.191 13.273 132.342 13.0092 132.645 12.7552C132.949 12.5011 133.363 12.2714 133.89 12.0669C134.417 11.8623 135.023 11.6959 135.708 11.5685C136.424 11.4387 137.15 11.3748 137.877 11.3778C138.932 11.3778 139.825 11.4857 140.558 11.7C141.291 11.9143 141.886 12.2471 142.345 12.6959C142.805 13.1447 143.133 13.7072 143.319 14.3809C143.506 15.0546 143.611 15.8419 143.611 16.7396V22.2482L143.619 22.2491ZM139.867 18.8499H139.457C139.32 18.85 139.183 18.8598 139.047 18.8791L137.596 19.0544C137.109 19.1331 136.693 19.2695 136.322 19.4651C135.966 19.6481 135.656 19.9085 135.414 20.2272C135.178 20.5397 135.062 20.9415 135.062 21.4285C135.062 21.9755 135.218 22.439 135.531 22.8205C135.843 23.2019 136.371 23.3919 137.113 23.3919C137.484 23.3919 137.844 23.3432 138.168 23.2458C138.493 23.1484 138.793 23.0218 139.047 22.8643C139.302 22.7068 139.502 22.5372 139.648 22.3513C139.794 22.1655 139.867 21.9942 139.867 21.8384L139.866 18.849L139.867 18.8499Z" fill="#6F7275"/>
</svg>
