<svg width="130" height="37" viewBox="0 0 130 37" fill="none" xmlns="http://www.w3.org/2000/svg">
<path fill-rule="evenodd" clip-rule="evenodd" d="M27.6279 8.14818C27.2615 8.5596 26.8305 8.97102 26.3779 9.42575L24.5892 11.1364H29.7829V13.2585H21.4213V12.1541L24.3306 8.62457C24.8694 8.08322 25.322 7.60684 25.6452 7.19541C25.9685 6.80565 26.3564 6.32926 26.5288 6.02611C26.7443 5.67965 27.8434 4.61861 27.7356 3.29773C27.2615 1.82527 25.9038 1.69535 25.1065 1.80361C24.2875 1.82527 23.3393 2.92961 23.1885 3.88238C23.1885 3.88238 21.7015 3.66584 21.3782 3.51427C21.3998 3.10284 22.1109 1.30558 23.4902 0.504386C24.1582 0.201233 24.5892 0.0496579 25.3651 0.0496579C25.9685 0.0496579 26.5072 0.136271 27.0029 0.287848C27.4986 0.439424 27.908 0.677616 28.2528 0.980769C28.5977 1.28392 29.1795 1.65204 29.3519 2.10677C29.6321 2.69142 29.8476 3.29773 29.8476 3.90403C29.9122 5.24657 28.7701 6.56745 28.5546 6.91391C28.2959 7.34699 27.9942 7.75841 27.6279 8.14818ZM17.9301 36.3414C8.01683 36.3414 0 28.2646 0 18.3255C0 8.36472 8.03838 0.309503 17.9301 0.309503V6.67572C11.5296 6.67572 6.33588 11.8943 6.33588 18.3255C6.33588 24.7566 11.5296 29.9969 17.9301 29.9969C23.0161 29.9969 27.3262 26.7055 28.8994 22.1365C25.7961 22.1365 21.3998 22.1149 21.3998 22.1149V15.4455C21.3998 15.4455 34.9551 15.4455 35.6447 15.4455C35.7956 16.3766 35.8818 17.351 35.8818 18.3255C35.8602 28.2862 27.8434 36.3414 17.9301 36.3414ZM41.8944 0.00634766H43.1012V36.0383H41.8944V0.00634766ZM59.415 26.6189C58.3806 27.2468 57.0876 27.5716 55.579 27.5716C54.0058 27.5716 52.6912 27.3118 51.6784 26.7705C50.6439 26.2291 49.9759 25.4929 49.631 24.5401C49.3078 23.5873 49.1354 22.1582 49.1354 20.2527V14.5577C49.1354 13.1502 49.1785 12.1108 49.2862 11.3963C49.394 10.7033 49.6957 10.0104 50.2129 9.36079C50.7301 8.71118 51.4197 8.19149 52.3249 7.82337C53.23 7.45526 54.2644 7.26037 55.4282 7.26037C57.0229 7.26037 58.3375 7.54187 59.3719 8.12652C60.4064 8.71118 61.0744 9.42575 61.4192 10.2919C61.7425 11.1581 61.8071 10.8982 61.8071 12.7171V14.2329L57.4108 14.1679V12.8471C57.4108 11.851 57.3031 11.223 57.066 10.9632C56.8289 10.725 56.3333 10.5951 55.579 10.5951C54.6954 10.5951 54.1567 10.7466 53.9196 11.0498C53.6826 11.3529 53.5748 12.0026 53.5748 12.9986V21.8983C53.5748 22.8511 53.6826 23.4791 53.9196 23.7822C54.1567 24.0854 54.6739 24.2153 55.5144 24.2153C56.3117 24.2153 56.8074 24.0637 57.066 23.7822C57.3031 23.4791 57.4324 23.0893 57.4324 22.0066L57.4108 20.5991H61.8287V20.9023C61.8287 22.9161 61.764 23.5657 61.4623 24.3885C61.1175 25.233 60.4495 25.9909 59.415 26.6189ZM71.979 12.414C71.979 11.8077 71.6773 11.0931 71.0955 10.8982C70.5136 10.7033 69.7593 10.6167 68.2077 10.6167V16.1384C69.7162 16.1384 70.4705 16.0518 71.0524 15.9002C71.6558 15.7487 71.9575 14.3412 71.9575 13.475V12.414H71.979ZM71.979 21.1405C71.979 20.1011 71.7635 19.4731 71.3325 19.2133C70.9015 18.9751 70.061 18.8452 68.2292 18.8452V27.2685H63.8976L63.9622 7.69345H67.8629C70.4705 7.69345 72.2376 7.78007 73.1643 7.97495C74.091 8.16984 74.8453 8.62457 75.4271 9.38245C76.009 10.1403 76.3107 11.3529 76.3107 13.0203C76.3107 14.5361 76.0521 15.9002 75.6642 16.4199C75.2547 16.9396 74.4574 17.2644 73.2721 17.3727C74.3496 17.6325 75.0823 17.9574 75.4487 18.3688C75.815 18.7802 76.0521 19.17 76.1383 19.5164C76.2245 19.8629 76.3322 20.4475 76.3322 22.0283V27.1602L72.0221 27.2685V21.1405H71.979ZM87.4093 12.7171C87.4093 11.8077 87.2584 11.2447 86.9783 10.9848C86.6981 10.725 86.0947 10.6167 85.2111 10.6167C84.4568 10.6167 83.875 10.725 83.4655 10.9199C83.056 11.1147 82.8621 11.7211 82.8621 12.7171V21.7684C82.8621 22.8944 82.9914 23.5873 83.25 23.8472C83.5086 24.107 84.1336 24.237 85.0818 24.237C86.0731 24.237 86.6981 24.0854 86.9783 23.7822C87.2584 23.4791 87.3877 22.7645 87.3877 21.6168V12.7171H87.4093ZM90.7927 25.4712C90.2539 26.1425 89.4997 26.6622 88.573 27.0303C87.6463 27.3984 86.5472 27.5716 85.2973 27.5716C84.112 27.5716 83.056 27.3984 82.1078 27.052C81.1596 26.7055 80.4053 26.2075 79.845 25.5145C79.2631 24.8433 78.9399 24.0854 78.8321 23.2842C78.7244 22.483 78.6597 21.0755 78.6597 19.0617V15.727C78.6597 13.7782 78.7028 12.3923 78.8106 11.5695C78.9183 10.7466 79.2416 10.0104 79.8019 9.33914C80.3622 8.66787 81.0949 8.14818 82.0216 7.78006C82.9483 7.41195 84.0474 7.23872 85.2973 7.23872C86.4826 7.23872 87.5386 7.41195 88.4868 7.75841C89.435 8.10487 90.1893 8.60291 90.7496 9.29583C91.3099 9.9671 91.6547 10.725 91.7625 11.5262C91.8702 12.3274 91.9349 13.7349 91.9349 15.727V19.0834C91.9349 21.0322 91.8918 22.418 91.784 23.2409C91.6763 24.0637 91.353 24.8 90.7927 25.4712ZM106.869 27.1602C106.244 24.172 104.779 16.8314 104.283 12.9986C104.068 14.6443 102.344 21.985 101.546 27.1602H96.8053L93.1202 7.67179H97.2794L98.4647 14.4711L99.3268 22.548C99.5207 19.1483 101.245 13.1719 102.064 7.67179H106.891C106.956 8.23479 107.775 10.3785 108.098 14.103L109.305 22.418C109.628 17.6975 110.727 12.1758 111.46 7.67179H115.317L111.352 27.1602H106.869ZM125.08 13.3018C125.08 12.4356 125.015 11.8726 124.886 11.6128C124.756 11.3746 124.433 11.1797 123.938 11.0714C123.442 10.9632 122.537 10.8982 121.179 10.8982V23.9121C122.968 23.9121 124.045 23.7606 124.476 23.4791C124.886 23.1976 125.101 22.3964 125.101 21.0972V13.3018H125.08ZM129.023 24.8866C128.851 25.4712 128.528 25.9476 128.075 26.2724C127.623 26.5972 127.084 26.8354 126.416 26.9653C125.769 27.0953 125.08 27.1602 123.744 27.1602H116.783V7.67179H120.92C123.593 7.67179 125.101 7.78006 126.028 8.01826C126.976 8.23479 127.687 8.60291 128.183 9.1226C128.679 9.64229 128.98 10.2053 129.11 10.8333C129.239 11.4612 129.282 12.6955 129.282 14.5361V21.357C129.304 23.111 129.217 24.2803 129.023 24.8866Z" fill="#6F7275"/>
</svg>
