<svg width="122" height="35" viewBox="0 0 122 35" fill="none" xmlns="http://www.w3.org/2000/svg">
<path d="M15.9043 16.4512C13.1553 16.4512 11.7811 15.6656 11.7811 13.7517C11.7811 11.8378 13.1553 11.0026 15.9043 11.0026H20.224C23.0712 11.0026 24.2985 12.0821 24.2985 14.905C24.2985 22.0719 19.6347 27.2259 12.2965 27.2259C5.17835 27.2259 0 21.7773 0 13.604C0 5.25856 5.11341 0.00634766 12.984 0.00634766C18.7029 0.00634766 22.4584 2.82928 22.4584 5.35676C22.4584 6.80475 21.3221 8.10583 19.9553 8.10583C18.2127 8.10583 16.3475 5.6027 12.7884 5.6027C8.83566 5.6027 6.30898 8.52465 6.30898 13.4814C6.30898 18.538 8.91033 21.5979 12.7397 21.5979C15.8078 21.5979 17.8694 19.6094 17.9343 16.4196L15.9052 16.4439L15.9043 16.4512ZM35.0001 22.0224C37.8474 22.0224 39.6882 20.1816 40.9901 20.1816C42.3642 20.1816 43.2725 21.0907 43.2725 22.3909C43.2725 24.6246 39.6647 27.1529 34.7063 27.1529C29.1099 27.1529 24.839 22.882 24.839 17.064C24.839 11.2461 28.9622 6.8778 34.4117 6.8778C39.8611 6.8778 43.697 11.2234 43.697 16.3043C43.697 18.2685 42.7879 18.6119 40.874 18.6119H30.6878C30.9581 20.7709 32.553 22.0232 35.0074 22.0232L35.0001 22.0224ZM38.1412 14.9042C38.0195 12.9563 36.3986 11.4929 34.4595 11.5172C32.544 11.5172 31.023 12.8183 30.631 14.9042H38.1412ZM46.0443 12.9157C44.0314 12.9157 42.8301 11.9417 42.8301 10.4613C42.8301 8.91505 43.9827 8.03116 46.2667 7.93295V5.429C46.2667 2.65558 47.1757 1.28957 49.1139 1.28957C51.0522 1.28957 51.9369 2.6637 51.9369 5.429V7.93295H52.4523C54.7346 7.93295 56.0357 8.90693 56.0357 10.4613C56.0357 12.0156 54.8328 12.9157 52.4279 12.9157H51.9612V23.0045C51.9612 25.778 51.1025 27.144 49.1383 27.144C47.1741 27.144 46.291 25.769 46.291 23.0045V12.9254H46.0459L46.0443 12.9157ZM58.8562 24.5256C58.267 26.2682 57.31 27.1269 56.0333 27.1269C54.5609 27.1756 53.3086 26.0474 53.2599 24.5743V24.3535C53.2337 23.7741 53.3342 23.1961 53.5545 22.6596L60.2303 4.52157C61.1637 1.94457 62.5379 0.717355 64.722 0.717355C66.7106 0.717355 68.2316 1.92023 69.0173 4.10438L75.5219 22.5614C75.7427 23.1506 75.8904 23.7642 75.9147 24.4022C75.9147 26.071 74.6632 27.1513 73.0187 27.1513C71.4969 27.1513 70.5148 26.2179 69.9507 24.304L69.2145 21.9234H59.7158L58.857 24.5248L58.8562 24.5256ZM67.5206 16.5243L64.5743 6.97682L61.3845 16.5243H67.5206ZM79.18 34.418C77.2158 34.418 76.3327 33.0439 76.3327 30.2786V11.1252C76.3327 8.35176 77.2418 7.00198 79.18 7.00198C80.3163 7.00198 81.1929 7.59124 81.8796 8.81846C83.0321 7.54254 84.6286 6.85426 86.5677 6.85426C91.3288 6.85426 95.2313 10.9937 95.2313 16.8684C95.2313 22.6117 91.2558 27.0953 86.4938 27.0953C84.8494 27.1196 83.2537 26.5312 82.0021 25.4265V30.2615C82.0508 33.0349 81.1434 34.401 79.18 34.401V34.418ZM85.7081 21.7773C87.8671 21.7773 89.4637 19.8878 89.4637 16.9423C89.4637 14.0463 87.7949 12.1803 85.7081 12.1803C83.6214 12.1803 81.9534 13.9968 81.9534 16.9423C81.9534 19.8878 83.524 21.7773 85.7081 21.7773ZM98.9705 34.418C97.0063 34.418 96.1233 33.0439 96.1233 30.2786V11.1252C96.1233 8.35176 97.0323 7.00198 98.9705 7.00198C100.107 7.00198 100.983 7.59124 101.67 8.81846C102.824 7.54254 104.419 6.85426 106.358 6.85426C111.12 6.85426 115.023 10.9937 115.023 16.8684C115.023 22.6117 111.046 27.0953 106.284 27.0953C104.631 27.1183 103.03 26.5232 101.793 25.4265V30.2615C101.817 33.0349 100.934 34.401 98.9705 34.401V34.418ZM105.474 21.7773C107.635 21.7773 109.23 19.8878 109.23 16.9423C109.23 14.0463 107.561 12.1803 105.474 12.1803C103.388 12.1803 101.72 13.9968 101.72 16.9423C101.72 19.8878 103.315 21.7773 105.474 21.7773ZM118.531 3.78621C120.423 3.78621 121.944 5.30806 121.944 7.19759C121.944 9.08712 120.422 10.609 118.531 10.609C116.641 10.609 115.12 9.08712 115.12 7.19759C115.144 5.30806 116.666 3.78621 118.531 3.78621ZM118.531 9.77459C119.955 9.77459 121.109 8.62204 121.109 7.19759C121.109 5.77314 119.955 4.62059 118.531 4.62059C117.108 4.62059 115.954 5.77314 115.954 7.19759C115.954 8.62204 117.107 9.77459 118.531 9.77459ZM117.992 8.63828C118.04 8.8347 117.894 9.03112 117.697 9.07981H117.575C117.256 9.07981 117.158 8.93372 117.158 8.63828V5.79911C117.158 5.57834 117.239 5.40628 117.575 5.40628H118.63C119.392 5.40628 120.005 5.62704 120.005 6.48577C120.005 7.14889 119.661 7.45976 119.072 7.51657L119.734 8.59607C119.759 8.64477 119.783 8.71782 119.783 8.79249C119.783 8.98891 119.66 9.11147 119.341 9.11147C119.022 9.11147 118.948 8.8907 118.825 8.66993L118.236 7.59043H117.966L117.991 8.64558L117.992 8.63828ZM118.703 6.89566C118.998 6.89566 119.195 6.81449 119.195 6.47847C119.195 6.14244 118.998 6.06128 118.703 6.06128H118.016V6.89566H118.703Z" fill="#6F7275"/>
</svg>
