<svg width="60" height="58" viewBox="0 0 60 58" fill="none" xmlns="http://www.w3.org/2000/svg">
<path d="M43.9979 10.0198C52.7664 18.2403 45.9981 29.3278 40.644 30.7942C32.2506 33.093 32.9137 38.7942 34.9592 46.2456C36.7786 52.8735 19.138 57.947 13.2902 44.4444C8.41362 33.1843 12.3274 22.902 14.5212 19.4955C16.9361 15.7457 29.8716 -3.22361 43.9979 10.0198Z" fill="url(#paint0_linear)"/>
<path d="M27.0566 10.9053H17.1566C16.4111 10.9053 15.8066 11.5097 15.8066 12.2553V45.5553C15.8066 46.3009 16.4111 46.9053 17.1566 46.9053H36.9566C37.7023 46.9053 38.3066 46.3009 38.3066 45.5553V35.6553" stroke="#37434E" stroke-linecap="round" stroke-linejoin="round"/>
<g clip-path="url(#clip0)">
<path d="M34.7949 23.6573L40.2174 18.2348M34.7949 12.3605V23.6573V12.3605ZM34.7949 23.6573L29.3724 18.2348L34.7949 23.6573Z" stroke="#37434E" stroke-linecap="round" stroke-linejoin="round"/>
<path d="M41.6994 25.3835V27.6429C41.6994 27.9549 41.4465 28.2078 41.1346 28.2078H29.0846C28.7726 28.2078 28.5197 27.9549 28.5197 27.6429V25.3835" stroke="#37434E" stroke-linecap="round" stroke-linejoin="round"/>
</g>
<path d="M25.5188 43.3168L30.0951 43.3168" stroke="#37434E" stroke-linecap="round"/>
<defs>
<linearGradient id="paint0_linear" x1="-9.77417" y1="31.7812" x2="57.3953" y2="15.7632" gradientUnits="userSpaceOnUse">
<stop stop-color="#05F3A8"/>
<stop offset="1" stop-color="white" stop-opacity="0"/>
</linearGradient>
<clipPath id="clip0">
<rect width="18.3051" height="18.3051" fill="white" transform="translate(25.8633 11.283)"/>
</clipPath>
</defs>
</svg>
