<svg width="48" height="52" viewBox="0 0 48 52" fill="none" xmlns="http://www.w3.org/2000/svg">
<path d="M41.7537 41.9856C44.5395 31.1322 36.127 30.6484 35.6671 21.4264C35.7804 16.9007 34.5178 8.64643 29.2695 5.40733C16.2101 -2.65246 8.16416 6.46433 5.60771 13.8219C3.05127 21.1794 7.55788 39.0938 22.1855 47.1513C35.8267 54.6655 41.3647 44.2792 41.7537 41.9856Z" fill="url(#paint0_linear)"/>
<path d="M19.0705 24.4156H23.9431H27.6692" stroke="#37434E" stroke-linecap="round" stroke-linejoin="round"/>
<path d="M19.0705 16.6198H23.9431" stroke="#37434E" stroke-linecap="round" stroke-linejoin="round"/>
<path d="M11.2746 32.2119V9.99279C11.2746 9.34694 11.7982 8.82336 12.444 8.82336H22.7396M28.816 43.9062C33.1217 43.9062 36.6122 40.4156 36.6122 36.11V33.2437" stroke="#37434E" stroke-linecap="round" stroke-linejoin="round"/>
<path d="M5.42739 32.2119H11.2745H19.8503C20.4962 32.2119 21.0258 32.7319 21.0778 33.3757C21.3172 36.3336 22.5423 43.9062 28.8159 43.9062H11.2745H7.37644C4.14716 43.9062 1.5293 41.2884 1.5293 38.059V36.11C1.5293 33.9571 3.27454 32.2119 5.42739 32.2119Z" stroke="#37434E" stroke-linecap="round" stroke-linejoin="round"/>
<path d="M28.858 12.2844V13.9236C28.858 14.1465 29.0387 14.3273 29.2617 14.3273C29.4221 14.3273 29.5665 14.2318 29.6356 14.087C30.9259 11.3815 33.6863 9.51196 36.8835 9.51196C41.045 9.51196 44.4667 12.6794 44.8693 16.7349" stroke="#37434E" stroke-width="1.01911" stroke-linecap="round" stroke-linejoin="round"/>
<path d="M44.8693 22.5705V21.1502C44.8693 20.9272 44.6886 20.7465 44.4657 20.7465C44.3052 20.7465 44.1609 20.842 44.0918 20.9868C42.8015 23.6923 40.0411 25.5618 36.8439 25.5618C32.6824 25.5618 29.2607 22.3944 28.858 18.3389" stroke="#37434E" stroke-width="1.01911" stroke-linecap="round" stroke-linejoin="round"/>
<path d="M39.4688 14.709C38.9025 14.1554 37.905 13.7704 36.9882 13.7463M36.9882 13.7463C35.8975 13.7176 34.9211 14.1999 34.9211 15.5172C34.9211 17.9417 39.4688 16.7295 39.4688 19.1539C39.4688 20.5367 38.2584 21.1308 36.9882 21.0862M36.9882 13.7463V21.0862M36.9882 13.7463V12.2845M34.5076 19.9621C35.0405 20.6565 36.0314 21.0526 36.9882 21.0862M36.9882 21.0862V22.7906" stroke="#37434E" stroke-width="1.01911" stroke-linecap="round" stroke-linejoin="round"/>
<defs>
<linearGradient id="paint0_linear" x1="37.5414" y1="-4.19717" x2="4.10658" y2="47.6239" gradientUnits="userSpaceOnUse">
<stop stop-color="#FFFDFA" stop-opacity="0"/>
<stop offset="1" stop-color="#FFC733"/>
</linearGradient>
</defs>
</svg>
