<svg width="36" height="42" viewBox="0 0 36 42" fill="none" xmlns="http://www.w3.org/2000/svg">
<path d="M35.2443 32.7157C34.6216 34.1081 33.8522 35.4359 32.9481 36.6783C31.7404 38.3329 30.7485 39.4761 29.9884 40.1125C28.8076 41.1522 27.5392 41.6872 26.183 41.7174C25.2115 41.7174 24.0375 41.4521 22.6701 40.9128C21.2982 40.3757 20.0387 40.1125 18.885 40.1125C17.6773 40.1125 16.3818 40.3757 14.9942 40.9128C13.6088 41.4521 12.4888 41.7347 11.6319 41.7605C10.3342 41.8145 9.03655 41.2666 7.74336 40.1125C6.91797 39.4222 5.88568 38.2358 4.64647 36.5575C3.31955 34.7693 2.22878 32.6876 1.37415 30.3212C0.458799 27.7607 0 25.2843 0 22.8856C0 20.1396 0.61848 17.7689 1.85769 15.7843C2.79496 14.2257 4.13492 12.9249 5.74849 12.0072C7.33959 11.0918 9.15594 10.599 11.0112 10.5791C12.0457 10.5791 13.4019 10.8854 15.0819 11.4894C16.7619 12.0934 17.8414 12.3998 18.3115 12.3998C18.6668 12.3998 19.8611 12.0395 21.8942 11.3255C23.8126 10.6633 25.4319 10.3893 26.7588 10.4972C30.3572 10.7754 33.0583 12.1344 34.8553 14.5849C31.6392 16.4552 30.0491 19.0718 30.0806 22.4304C30.1076 25.047 31.0994 27.2236 33.0425 28.9515C33.9016 29.74 34.904 30.3709 36 30.8131C35.7616 31.4753 35.5097 32.1074 35.2443 32.7157ZM26.9972 1.58603C26.9972 3.63531 26.2145 5.55085 24.6605 7.32186C22.7803 9.42722 20.5088 10.646 18.0461 10.454C18.0139 10.1963 17.9981 9.93699 17.9989 9.67745C17.9989 7.70798 18.8895 5.60262 20.4795 3.87907C21.2712 3.00758 22.2788 2.28063 23.5 1.70251C24.7189 1.13303 25.8704 0.818089 26.9545 0.76416C26.9837 1.04027 26.9972 1.31423 26.9972 1.58603Z" fill="#4D5B67"/>
</svg>
