<svg width="565" height="147" viewBox="0 0 565 147" fill="none" xmlns="http://www.w3.org/2000/svg">
<path d="M0 47.7464L5.70166 46.8382L3.63733 52.2301L0 47.7464ZM249.94 47.7464L249.557 47.4244L249.94 47.7464ZM4.37567 48.8863C29.2094 58.051 79.2697 71.096 128.773 75.1239C153.524 77.1377 178.111 76.8953 199.326 72.7986C220.547 68.7007 238.332 60.7582 249.557 47.4244L250.322 48.0684C238.888 61.6502 220.845 69.6615 199.515 73.7805C178.179 77.9008 153.492 78.1385 128.692 76.1206C79.0926 72.0849 28.9432 59.0187 4.02948 49.8245L4.37567 48.8863ZM249.557 47.4244C257.487 38.0047 259.714 28.5049 257.887 20.6438C256.059 12.7817 250.156 6.46643 241.634 3.44208C224.597 -2.60357 196.976 4.51772 171.053 39.2195L170.252 38.621C196.311 3.73674 224.349 -3.75249 241.968 2.49966C250.773 5.62421 256.947 12.1849 258.861 20.4174C260.775 28.6511 258.407 38.4645 250.322 48.0684L249.557 47.4244ZM171.053 39.2195C158.161 56.4763 157.175 73.6123 164.547 88.9297C171.938 104.286 187.761 117.877 208.609 127.893C250.3 147.923 311.846 153.541 365.26 130.575L365.655 131.494C311.953 154.584 250.104 148.939 208.176 128.794C187.214 118.723 171.171 104.999 163.646 89.3633C156.103 73.6892 157.151 56.1573 170.252 38.621L171.053 39.2195ZM365.26 130.575C472.334 84.5364 517.636 63.0331 563.925 56.012L564.075 57.0007C517.95 63.9969 472.815 85.4181 365.655 131.494L365.26 130.575Z" fill="#37434E"/>
</svg>
