<svg width="567" height="183" viewBox="0 0 567 183" fill="none" xmlns="http://www.w3.org/2000/svg">
<path d="M2.22657 0.856613L0.543185 6.3618L6.2905 4.64804L2.22657 0.856613ZM96.0029 133.216L95.9721 132.733L96.0029 133.216ZM359.688 112.951L359.968 112.524L359.688 112.951ZM405.795 156.55L406.306 156.528L405.795 156.55ZM542.318 153.304L542.116 152.872L542.318 153.304ZM2.80189 5.19539C6.51786 18.9549 17.0727 52.6544 33.0278 82.1141C41.0043 96.8421 50.3451 110.538 60.8772 120.151C71.406 129.761 83.1887 135.346 96.0337 133.7L95.9721 132.733C83.5531 134.325 72.0436 128.943 61.6131 119.423C51.186 109.905 41.9005 96.3063 33.9447 81.6167C18.0352 52.2413 7.50167 18.6147 3.7944 4.88734L2.80189 5.19539ZM96.0337 133.7C112.883 131.54 131.014 125.436 150.385 118.46C169.774 111.477 190.416 103.615 212.357 97.8877C256.208 86.4416 305.203 83.5369 359.408 113.379L359.968 112.524C305.481 82.5273 256.194 85.4527 212.156 96.9476C190.153 102.691 169.449 110.577 150.087 117.55C130.708 124.53 112.684 130.59 95.9721 132.733L96.0337 133.7ZM359.408 113.379C389.563 129.98 407.392 144.036 417.21 155.004C422.12 160.488 425.013 165.185 426.45 169.028C427.89 172.878 427.851 175.822 426.982 177.839C426.125 179.827 424.434 180.985 422.349 181.267C420.241 181.551 417.703 180.939 415.256 179.291C410.373 176.001 405.939 168.627 406.306 156.528L405.283 156.573C404.909 168.904 409.429 176.601 414.625 180.101C417.216 181.848 419.997 182.56 422.418 182.233C424.861 181.903 426.907 180.512 427.924 178.151C428.929 175.818 428.901 172.61 427.417 168.641C425.93 164.664 422.965 159.875 418.01 154.339C408.098 143.267 390.17 129.152 359.968 112.524L359.408 113.379ZM406.306 156.528C406.681 144.178 408.591 135.157 411.673 128.776C414.747 122.411 418.98 118.682 424.04 116.865C429.123 115.039 435.113 115.117 441.722 116.513C448.327 117.909 455.501 120.611 462.926 123.977C470.348 127.342 478 131.362 485.564 135.385C493.123 139.405 500.596 143.43 507.641 146.794C514.683 150.156 521.323 152.87 527.222 154.26C533.108 155.647 538.345 155.737 542.52 153.737L542.116 152.872C538.283 154.707 533.342 154.68 527.536 153.312C521.742 151.946 515.176 149.268 508.152 145.914C501.131 142.562 493.68 138.549 486.112 134.524C478.55 130.502 470.873 126.469 463.42 123.09C455.969 119.712 448.721 116.977 442.013 115.56C435.31 114.144 429.097 114.032 423.743 115.955C418.364 117.887 413.925 121.845 410.748 128.423C407.58 134.983 405.66 144.158 405.283 156.573L406.306 156.528ZM542.52 153.737C546.841 151.667 548.904 149.1 549.934 146.368C550.941 143.696 550.949 140.857 551.228 138.393C551.511 135.882 552.068 133.706 554.032 132.01C556.017 130.295 559.543 128.983 566.003 128.493L565.997 127.52C559.469 128.016 555.641 129.353 553.376 131.309C551.09 133.284 550.5 135.799 550.21 138.36C549.915 140.969 549.923 143.581 548.973 146.099C548.047 148.557 546.196 150.917 542.116 152.872L542.52 153.737Z" fill="#37434E"/>
</svg>
