<svg width="157" height="42" viewBox="0 0 157 42" fill="none" xmlns="http://www.w3.org/2000/svg">
<path d="M21.4357 6.36262L28.1394 8.41618C33.9254 10.1886 37.1411 16.3042 35.3219 22.0756L30.0353 38.8479L12.8551 33.5851C7.0691 31.8127 3.85335 25.6971 5.67253 19.9257L7.66529 13.6035C9.48447 7.83204 15.6497 4.59019 21.4357 6.36262Z" fill="url(#paint0_linear)" stroke="url(#paint1_linear)" stroke-width="3.78521"/>
<path fill-rule="evenodd" clip-rule="evenodd" d="M18.0434 17.4762C17.7351 17.6517 17.6306 18.0421 17.8098 18.3482L20.3257 22.6441C20.3507 22.6868 20.4057 22.7015 20.4487 22.6771V22.6771C20.5082 22.6432 20.5829 22.6862 20.5838 22.7542V22.7542C20.5845 22.8039 20.6259 22.8441 20.676 22.8435L23.8512 22.8019C24.2058 22.7972 24.4895 22.509 24.4847 22.1581C24.48 21.8072 24.1887 21.5265 23.8341 21.5311L22.675 21.5463C21.754 21.5584 20.8956 21.0755 20.4326 20.2849L18.9262 17.7128C18.747 17.4067 18.3517 17.3008 18.0434 17.4762Z" fill="white"/>
<path d="M17.8098 18.3482L17.5357 18.5042L17.8098 18.3482ZM23.8512 22.8019L23.8574 23.1156L23.8574 23.1156L23.8512 22.8019ZM24.4847 22.1581L24.1676 22.1603L24.1676 22.1603L24.4847 22.1581ZM23.8341 21.5311L23.8402 21.8448L23.8402 21.8448L23.8341 21.5311ZM18.9262 17.7128L19.2004 17.5567L18.9262 17.7128ZM20.676 22.8435L20.6822 23.1572L20.676 22.8435ZM22.675 21.5463L22.6811 21.86L22.675 21.5463ZM18.084 18.1921C17.9927 18.0364 18.046 17.8377 18.2028 17.7484L17.884 17.204C17.4243 17.4657 17.2684 18.0478 17.5357 18.5042L18.084 18.1921ZM20.5999 22.4881L18.084 18.1921L17.5357 18.5042L20.0516 22.8002L20.5999 22.4881ZM23.845 22.4881L20.6699 22.5298L20.6822 23.1572L23.8574 23.1156L23.845 22.4881ZM24.1676 22.1603C24.17 22.3387 24.0253 22.4858 23.845 22.4881L23.8574 23.1156C24.3863 23.1086 24.8089 22.6793 24.8018 22.1558L24.1676 22.1603ZM23.8402 21.8448C24.019 21.8425 24.1652 21.9834 24.1676 22.1603L24.8018 22.1558C24.7947 21.6309 24.3584 21.2105 23.8279 21.2174L23.8402 21.8448ZM22.6811 21.86L23.8402 21.8448L23.8279 21.2174L22.6688 21.2326L22.6811 21.86ZM18.6521 17.8688L20.1584 20.4409L20.7067 20.1288L19.2004 17.5567L18.6521 17.8688ZM18.2028 17.7484C18.3597 17.6591 18.5609 17.713 18.6521 17.8688L19.2004 17.5567C18.9331 17.1003 18.3437 16.9424 17.884 17.204L18.2028 17.7484ZM20.2667 22.7565C20.2697 22.9785 20.4545 23.1602 20.6822 23.1572L20.6699 22.5298C20.7972 22.5281 20.8992 22.6293 20.9009 22.752L20.2667 22.7565ZM22.6688 21.2326C21.8629 21.2432 21.1119 20.8207 20.7067 20.1288L20.1584 20.4409C20.6794 21.3304 21.645 21.8736 22.6811 21.86L22.6688 21.2326ZM20.6081 22.9493C20.4546 23.0366 20.269 22.9248 20.2667 22.7565L20.9009 22.752C20.8968 22.4475 20.5617 22.2498 20.2893 22.4049L20.6081 22.9493ZM20.0516 22.8002C20.1646 22.9931 20.4138 23.0599 20.6081 22.9493L20.2893 22.4049C20.3977 22.3431 20.5368 22.3804 20.5999 22.4881L20.0516 22.8002Z" fill="white"/>
<path fill-rule="evenodd" clip-rule="evenodd" d="M23.4161 13.2306C23.5167 12.7227 24.0501 12.42 24.5248 12.6418C26.1877 13.4186 27.6365 14.6843 28.6261 16.3741C31.2179 20.7997 29.6798 26.4585 25.1907 29.0136C20.7016 31.5687 14.9613 30.0524 12.3695 25.6269C9.77771 21.2014 11.3158 15.5425 15.8049 12.9874C17.0979 12.2515 18.4947 11.8533 19.8901 11.7651C20.4183 11.7317 20.8057 12.2192 20.7041 12.7326V12.7326C20.6247 13.1336 20.2676 13.4154 19.8558 13.4491C18.7614 13.5388 17.6694 13.8623 16.6553 14.4394C12.9797 16.5315 11.7203 21.165 13.8424 24.7885C15.9646 28.4121 20.6646 29.6537 24.3403 27.5616C28.016 25.4695 29.2754 20.8361 27.1532 17.2125C26.3725 15.8794 25.2429 14.8688 23.9438 14.2278C23.5665 14.0417 23.3354 13.6385 23.4161 13.2306V13.2306Z" fill="white"/>
<path d="M23.9438 14.2278L24.1306 13.8537L23.9438 14.2278ZM19.8558 13.4491L19.8183 13.0322L19.8558 13.4491ZM24.5248 12.6418L24.3462 13.0198L24.5248 12.6418ZM28.9917 16.1661C27.9571 14.3996 26.4419 13.0758 24.7034 12.2637L24.3462 13.0198C25.9335 13.7613 27.3158 14.969 28.2606 16.5822L28.9917 16.1661ZM25.4033 29.3765C30.0918 26.708 31.7023 20.7945 28.9917 16.1661L28.2606 16.5822C30.7336 20.8048 29.2679 26.2091 24.9782 28.6507L25.4033 29.3765ZM12.004 25.8349C14.7146 30.4633 20.7147 32.0451 25.4033 29.3765L24.9782 28.6507C20.6884 31.0923 15.208 29.6415 12.735 25.4188L12.004 25.8349ZM15.5924 12.6245C10.9039 15.293 9.29338 21.2065 12.004 25.8349L12.735 25.4188C10.262 21.1962 11.7278 15.7919 16.0175 13.3503L15.5924 12.6245ZM19.8606 11.3476C18.402 11.4398 16.9424 11.8561 15.5924 12.6245L16.0175 13.3503C17.2534 12.6469 18.5874 12.2668 19.9197 12.1826L19.8606 11.3476ZM16.8679 14.8024C17.8273 14.2563 18.8594 13.9508 19.8933 13.866L19.8183 13.0322C18.6634 13.1269 17.5115 13.4683 16.4428 14.0765L16.8679 14.8024ZM14.208 24.5805C12.2046 21.1598 13.3916 16.7809 16.8679 14.8024L16.4428 14.0765C12.5677 16.2821 11.236 21.1701 13.4769 24.9966L14.208 24.5805ZM24.1278 27.1987C20.6515 29.1772 16.2113 28.0012 14.208 24.5805L13.4769 24.9966C15.7179 28.823 20.6778 30.1301 24.5529 27.9245L24.1278 27.1987ZM26.7877 17.4205C28.791 20.8412 27.604 25.2201 24.1278 27.1987L24.5529 27.9245C28.4279 25.7189 29.7597 20.8309 27.5187 17.0044L26.7877 17.4205ZM23.757 14.602C24.9839 15.2073 26.0502 16.1613 26.7877 17.4205L27.5187 17.0044C26.6948 15.5976 25.5019 14.5302 24.1306 13.8537L23.757 14.602ZM19.9197 12.1826C20.1372 12.1688 20.3439 12.3731 20.2891 12.6498L21.1191 12.8154C21.2675 12.0653 20.6994 11.2946 19.8606 11.3476L19.9197 12.1826ZM24.1306 13.8537C23.9029 13.7414 23.7915 13.5136 23.8311 13.3135L23.0012 13.1478C22.8793 13.7634 23.2301 14.3421 23.757 14.602L24.1306 13.8537ZM20.2891 12.6498C20.2502 12.8464 20.0661 13.0119 19.8183 13.0322L19.8933 13.866C20.4692 13.8188 20.9992 13.4208 21.1191 12.8154L20.2891 12.6498ZM24.7034 12.2637C23.9503 11.9119 23.148 12.4057 23.0012 13.1478L23.8311 13.3135C23.8853 13.0397 24.1498 12.9281 24.3462 13.0198L24.7034 12.2637Z" fill="white"/>
<path d="M50.6104 32.582C50.1224 32.582 49.7389 32.4513 49.4601 32.1899C49.1812 31.911 48.9895 31.4753 48.8849 30.8827L45.7738 14.2813H47.6823L50.532 30.0722H50.5581L55.1594 15.2486H55.9699C56.2836 15.2486 56.5363 15.3445 56.7281 15.5362C56.9198 15.7105 57.0766 15.9894 57.1986 16.3728L61.2771 30.0722H61.3032L64.1529 14.2813H66.0614L62.9503 30.8827C62.8457 31.4753 62.654 31.911 62.3751 32.1899C62.0963 32.4513 61.7128 32.582 61.2248 32.582H60.4405L55.996 17.8369H55.9699L51.3947 32.582H50.6104ZM72.3259 32.7912C70.8619 32.7912 69.6854 32.3642 68.7965 31.5101C67.9076 30.6387 67.4632 29.4883 67.4632 28.0591V24.3206C67.4632 22.8217 67.9076 21.619 68.7965 20.7127C69.6854 19.789 70.8619 19.3271 72.3259 19.3271H74.4697C75.8641 19.3271 76.9883 19.7715 77.8423 20.6604C78.6963 21.5493 79.1233 22.7258 79.1233 24.1898V26.4905H69.3455V28.0591C69.3455 28.9655 69.6157 29.7062 70.156 30.2814C70.7137 30.8391 71.437 31.118 72.3259 31.118H74.3129C75.1843 31.118 75.8902 30.8827 76.4305 30.4121C76.9708 29.9241 77.241 29.2792 77.241 28.4774H79.0711C79.0711 29.7672 78.6353 30.813 77.7639 31.6147C76.8924 32.399 75.7421 32.7912 74.3129 32.7912H72.3259ZM77.241 24.8696V24.1898C77.241 23.2312 76.9883 22.4644 76.4828 21.8892C75.9774 21.2966 75.3063 21.0003 74.4697 21.0003H72.3259C71.437 21.0003 70.7137 21.3053 70.156 21.9153C69.6157 22.5254 69.3455 23.3271 69.3455 24.3206V24.8696H77.241ZM87.5615 32.7912C86.9863 32.7912 86.3763 32.6169 85.7314 32.2683C85.0865 31.9023 84.5898 31.4491 84.2412 30.9088V32.582H82.4111V14.2813H84.2935V21.0787C84.6769 20.5384 85.165 20.1114 85.7576 19.7977C86.3676 19.484 86.995 19.3271 87.6399 19.3271H89.4961C90.385 19.3271 91.1693 19.5362 91.8491 19.9545C92.5463 20.3554 93.0866 20.9306 93.47 21.68C93.8709 22.4121 94.0713 23.2574 94.0713 24.216V27.5886C94.0713 28.6169 93.8709 29.5232 93.47 30.3075C93.0866 31.0918 92.5375 31.7019 91.8229 32.1376C91.1258 32.5733 90.3153 32.7912 89.3916 32.7912H87.5615ZM89.3393 31.118C90.1759 31.118 90.8556 30.7955 91.3785 30.1507C91.9188 29.4883 92.189 28.6343 92.189 27.5886V24.216C92.189 23.2574 91.9275 22.4818 91.4046 21.8892C90.8992 21.2966 90.2456 21.0003 89.4438 21.0003H87.6922C86.7859 21.0003 86.0103 21.3315 85.3654 21.9938C84.7205 22.6561 84.3632 23.5275 84.2935 24.6082V27.7977C84.3284 28.4077 84.5027 28.9655 84.8164 29.4709C85.1301 29.9764 85.531 30.3772 86.019 30.6735C86.507 30.9698 87.0212 31.118 87.5615 31.118H89.3393Z" fill="#37434E"/>
<path d="M102.169 32.5818C101.681 32.5818 101.298 32.4511 101.019 32.1896C100.74 31.9108 100.548 31.475 100.443 30.8824L97.3324 14.2811H99.2409L102.091 30.072H102.117L106.718 15.2484H107.528C107.842 15.2484 108.095 15.3443 108.287 15.536C108.478 15.7103 108.635 15.9891 108.757 16.3726L112.836 30.072H112.862L115.712 14.2811H117.62L114.509 30.8824C114.404 31.475 114.213 31.9108 113.934 32.1896C113.655 32.4511 113.271 32.5818 112.783 32.5818H111.999L107.555 17.8366H107.528L102.953 32.5818H102.169ZM123.885 32.7909C122.42 32.7909 121.244 32.3378 120.355 31.4315C119.466 30.5251 119.022 29.3312 119.022 27.8497V24.268C119.022 22.7866 119.466 21.5926 120.355 20.6863C121.261 19.78 122.455 19.3268 123.937 19.3268H126.081C127.562 19.3268 128.747 19.78 129.636 20.6863C130.543 21.5926 130.996 22.7866 130.996 24.268V27.8497C130.996 29.3312 130.543 30.5251 129.636 31.4315C128.73 32.3378 127.527 32.7909 126.028 32.7909H123.885ZM126.028 31.1177C126.97 31.1177 127.719 30.8214 128.277 30.2288C128.834 29.6188 129.113 28.8258 129.113 27.8497V24.268C129.113 23.292 128.834 22.5077 128.277 21.9151C127.719 21.3051 126.987 21.0001 126.081 21.0001H123.937C123.031 21.0001 122.298 21.3051 121.741 21.9151C121.183 22.5077 120.904 23.292 120.904 24.268V27.8497C120.904 28.8432 121.174 29.6362 121.715 30.2288C122.255 30.8214 122.978 31.1177 123.885 31.1177H126.028ZM134.455 19.536H136.285V21.5491C136.633 20.9391 137.156 20.4423 137.854 20.0589C138.568 19.6754 139.309 19.4837 140.076 19.4837H141.226V21.1831H140.076C138.96 21.1831 138.054 21.5404 137.357 22.255C136.677 22.9521 136.337 23.8846 136.337 25.0524V32.5818H134.455V19.536ZM152.559 32.5818L147.434 26.4118L145.631 28.2158V32.5818H143.748V14.2811H145.631V25.9151L152.088 19.536H154.389L148.742 25.1308L154.807 32.5818H152.559Z" fill="#37434E"/>
<path d="M101.019 32.1896L100.53 32.6779L100.538 32.6858L100.546 32.6934L101.019 32.1896ZM100.443 30.8824L101.124 30.7624L101.122 30.7553L100.443 30.8824ZM97.3324 14.2811V13.5906H96.5005L96.6537 14.4083L97.3324 14.2811ZM99.2409 14.2811L99.9204 14.1585L99.8179 13.5906H99.2409V14.2811ZM102.091 30.072L101.411 30.1946L101.514 30.7625H102.091V30.072ZM102.117 30.072V30.7625H102.625L102.776 30.2767L102.117 30.072ZM106.718 15.2484V14.5579H106.209L106.059 15.0437L106.718 15.2484ZM108.287 15.536L107.798 16.0242L107.81 16.0359L107.822 16.0469L108.287 15.536ZM108.757 16.3726L109.419 16.1755L109.415 16.1632L108.757 16.3726ZM112.836 30.072L112.174 30.269L112.321 30.7625H112.836V30.072ZM112.862 30.072V30.7625H113.439L113.541 30.1946L112.862 30.072ZM115.712 14.2811V13.5906H115.134L115.032 14.1585L115.712 14.2811ZM117.62 14.2811L118.299 14.4083L118.452 13.5906H117.62V14.2811ZM114.509 30.8824L113.83 30.7552L113.829 30.7624L114.509 30.8824ZM113.934 32.1896L114.406 32.6934L114.414 32.6858L114.422 32.6779L113.934 32.1896ZM111.999 32.5818L111.338 32.7811L111.486 33.2723H111.999V32.5818ZM107.555 17.8366L108.216 17.6374L108.068 17.1462H107.555V17.8366ZM107.528 17.8366V17.1462H107.02L106.869 17.632L107.528 17.8366ZM102.953 32.5818V33.2723H103.462L103.613 32.7864L102.953 32.5818ZM102.169 31.8913C101.806 31.8913 101.609 31.7968 101.491 31.6859L100.546 32.6934C100.986 33.1053 101.556 33.2723 102.169 33.2723V31.8913ZM101.507 31.7014C101.368 31.5627 101.216 31.2842 101.123 30.7624L99.7635 31.0024C99.8806 31.6658 100.111 32.2588 100.53 32.6779L101.507 31.7014ZM101.122 30.7553L98.011 14.1539L96.6537 14.4083L99.7648 31.0096L101.122 30.7553ZM97.3324 14.9716H99.2409V13.5906H97.3324V14.9716ZM98.5614 14.4037L101.411 30.1946L102.77 29.9493L99.9204 14.1585L98.5614 14.4037ZM102.091 30.7625H102.117V29.3815H102.091V30.7625ZM102.776 30.2767L107.377 15.4531L106.059 15.0437L101.457 29.8673L102.776 30.2767ZM106.718 15.9389H107.528V14.5579H106.718V15.9389ZM107.528 15.9389C107.69 15.9389 107.757 15.9825 107.798 16.0242L108.775 15.0477C108.433 14.7061 107.994 14.5579 107.528 14.5579V15.9389ZM107.822 16.0469C107.887 16.1062 107.995 16.2558 108.099 16.5819L109.415 16.1632C109.275 15.7225 109.069 15.3143 108.751 15.0251L107.822 16.0469ZM108.095 16.5696L112.174 30.269L113.497 29.875L109.419 16.1756L108.095 16.5696ZM112.836 30.7625H112.862V29.3815H112.836V30.7625ZM113.541 30.1946L116.391 14.4037L115.032 14.1585L112.182 29.9493L113.541 30.1946ZM115.712 14.9716H117.62V13.5906H115.712V14.9716ZM116.941 14.1539L113.83 30.7553L115.188 31.0096L118.299 14.4083L116.941 14.1539ZM113.829 30.7624C113.737 31.2842 113.584 31.5627 113.445 31.7014L114.422 32.6779C114.841 32.2588 115.072 31.6658 115.189 31.0024L113.829 30.7624ZM113.461 31.6859C113.343 31.7968 113.146 31.8913 112.783 31.8913V33.2723C113.396 33.2723 113.967 33.1053 114.406 32.6934L113.461 31.6859ZM112.783 31.8913H111.999V33.2723H112.783V31.8913ZM112.66 32.3825L108.216 17.6374L106.894 18.0359L111.338 32.7811L112.66 32.3825ZM107.555 17.1462H107.528V18.5271H107.555V17.1462ZM106.869 17.632L102.294 32.3772L103.613 32.7864L108.188 18.0413L106.869 17.632ZM102.953 31.8913H102.169V33.2723H102.953V31.8913ZM120.355 31.4315L120.848 30.948L120.848 30.948L120.355 31.4315ZM120.355 20.6863L119.867 20.1981L119.862 20.2028L120.355 20.6863ZM129.636 20.6863L129.143 21.1698L129.148 21.1746L129.636 20.6863ZM129.636 31.4315L129.148 30.9432L129.148 30.9432L129.636 31.4315ZM128.277 30.2288L128.78 30.7021L128.786 30.6948L128.277 30.2288ZM128.277 21.9151L127.767 22.3811L127.774 22.3883L128.277 21.9151ZM121.741 21.9151L122.244 22.3884L122.25 22.381L121.741 21.9151ZM123.885 32.1005C122.575 32.1005 121.587 31.7013 120.848 30.948L119.862 31.9149C120.901 32.9742 122.266 33.4814 123.885 33.4814V32.1005ZM120.848 30.948C120.107 30.1922 119.712 29.1829 119.712 27.8497H118.331C118.331 29.4795 118.826 30.8581 119.862 31.9149L120.848 30.948ZM119.712 27.8497V24.268H118.331V27.8497H119.712ZM119.712 24.268C119.712 22.9349 120.107 21.9256 120.848 21.1698L119.862 20.2028C118.826 21.2597 118.331 22.6382 118.331 24.268H119.712ZM120.843 21.1746C121.6 20.4181 122.608 20.0173 123.937 20.0173V18.6364C122.303 18.6364 120.923 19.1419 119.867 20.1981L120.843 21.1746ZM123.937 20.0173H126.081V18.6364H123.937V20.0173ZM126.081 20.0173C127.41 20.0173 128.406 20.4181 129.143 21.1698L130.129 20.2028C129.089 19.1419 127.714 18.6364 126.081 18.6364V20.0173ZM129.148 21.1746C129.904 21.9311 130.305 22.9388 130.305 24.268H131.686C131.686 22.6343 131.181 21.2542 130.124 20.1981L129.148 21.1746ZM130.305 24.268V27.8497H131.686V24.268H130.305ZM130.305 27.8497C130.305 29.179 129.904 30.1867 129.148 30.9432L130.124 31.9197C131.181 30.8636 131.686 29.4835 131.686 27.8497H130.305ZM129.148 30.9432C128.393 31.6981 127.378 32.1005 126.028 32.1005V33.4814C127.677 33.4814 129.067 32.9774 130.124 31.9197L129.148 30.9432ZM126.028 32.1005H123.885V33.4814H126.028V32.1005ZM126.028 31.8082C127.127 31.8082 128.071 31.4554 128.78 30.7021L127.774 29.7556C127.367 30.1875 126.812 30.4272 126.028 30.4272V31.8082ZM128.786 30.6948C129.481 29.935 129.804 28.9651 129.804 27.8497H128.423C128.423 28.6864 128.188 29.3026 127.767 29.7629L128.786 30.6948ZM129.804 27.8497V24.268H128.423V27.8497H129.804ZM129.804 24.268C129.804 23.1533 129.481 22.1873 128.78 21.4419L127.774 22.3883C128.188 22.8281 128.423 23.4307 128.423 24.268H129.804ZM128.786 21.4492C128.084 20.6814 127.16 20.3096 126.081 20.3096V21.6905C126.814 21.6905 127.354 21.9288 127.767 22.381L128.786 21.4492ZM126.081 20.3096H123.937V21.6905H126.081V20.3096ZM123.937 20.3096C122.858 20.3096 121.933 20.6814 121.231 21.4492L122.25 22.381C122.664 21.9288 123.203 21.6905 123.937 21.6905V20.3096ZM121.238 21.4419C120.536 22.1873 120.214 23.1533 120.214 24.268H121.595C121.595 23.4307 121.83 22.8281 122.244 22.3883L121.238 21.4419ZM120.214 24.268V27.8497H121.595V24.268H120.214ZM120.214 27.8497C120.214 28.9724 120.522 29.9458 121.204 30.6941L122.225 29.7636C121.826 29.3267 121.595 28.714 121.595 27.8497H120.214ZM121.204 30.6941C121.893 31.4496 122.812 31.8082 123.885 31.8082V30.4272C123.144 30.4272 122.617 30.1933 122.225 29.7636L121.204 30.6941ZM123.885 31.8082H126.028V30.4272H123.885V31.8082ZM134.455 19.536V18.8455H133.764V19.536H134.455ZM136.285 19.536H136.975V18.8455H136.285V19.536ZM136.285 21.5491H135.594V24.1491L136.884 21.8917L136.285 21.5491ZM137.854 20.0589L137.527 19.4504L137.521 19.4539L137.854 20.0589ZM141.226 19.4837H141.917V18.7932H141.226V19.4837ZM141.226 21.1831V21.8735H141.917V21.1831H141.226ZM137.357 22.255L136.863 21.7728L136.862 21.7729L137.357 22.255ZM136.337 32.5818V33.2723H137.028V32.5818H136.337ZM134.455 32.5818H133.764V33.2723H134.455V32.5818ZM134.455 20.2265H136.285V18.8455H134.455V20.2265ZM135.594 19.536V21.5491H136.975V19.536H135.594ZM136.884 21.8917C137.162 21.4061 137.585 20.9944 138.186 20.6639L137.521 19.4539C136.727 19.8903 136.105 20.472 135.685 21.2065L136.884 21.8917ZM138.18 20.6673C138.8 20.3345 139.429 20.1742 140.076 20.1742V18.7932C139.188 18.7932 138.336 19.0163 137.527 19.4504L138.18 20.6673ZM140.076 20.1742H141.226V18.7932H140.076V20.1742ZM140.536 19.4837V21.1831H141.917V19.4837H140.536ZM141.226 20.4926H140.076V21.8735H141.226V20.4926ZM140.076 20.4926C138.798 20.4926 137.706 20.9087 136.863 21.7728L137.851 22.7371C138.402 22.172 139.122 21.8735 140.076 21.8735V20.4926ZM136.862 21.7729C136.033 22.6241 135.647 23.7428 135.647 25.0524H137.028C137.028 24.0264 137.322 23.2802 137.851 22.737L136.862 21.7729ZM135.647 25.0524V32.5818H137.028V25.0524H135.647ZM136.337 31.8913H134.455V33.2723H136.337V31.8913ZM135.145 32.5818V19.536H133.764V32.5818H135.145ZM152.559 32.5818L152.027 33.0229L152.235 33.2723H152.559V32.5818ZM147.434 26.4118L147.966 25.9707L147.482 25.388L146.946 25.9236L147.434 26.4118ZM145.631 28.2158L145.142 27.7275L144.94 27.9298V28.2158H145.631ZM145.631 32.5818V33.2723H146.321V32.5818H145.631ZM143.748 32.5818H143.058V33.2723H143.748V32.5818ZM143.748 14.2811V13.5906H143.058V14.2811H143.748ZM145.631 14.2811H146.321V13.5906H145.631V14.2811ZM145.631 25.9151H144.94V27.5678L146.116 26.4063L145.631 25.9151ZM152.088 19.536V18.8455H151.805L151.603 19.0448L152.088 19.536ZM154.389 19.536L154.875 20.0265L156.067 18.8455H154.389V19.536ZM148.742 25.1308L148.256 24.6403L147.811 25.081L148.206 25.5667L148.742 25.1308ZM154.807 32.5818V33.2723H156.259L155.343 32.1459L154.807 32.5818ZM153.09 32.1406L147.966 25.9707L146.903 26.853L152.027 33.0229L153.09 32.1406ZM146.946 25.9236L145.142 27.7275L146.119 28.704L147.923 26.9001L146.946 25.9236ZM144.94 28.2158V32.5818H146.321V28.2158H144.94ZM145.631 31.8913H143.748V33.2723H145.631V31.8913ZM144.439 32.5818V14.2811H143.058V32.5818H144.439ZM143.748 14.9716H145.631V13.5906H143.748V14.9716ZM144.94 14.2811V25.9151H146.321V14.2811H144.94ZM146.116 26.4063L152.573 20.0272L151.603 19.0448L145.145 25.4239L146.116 26.4063ZM152.088 20.2265H154.389V18.8455H152.088V20.2265ZM153.903 19.0455L148.256 24.6403L149.228 25.6213L154.875 20.0265L153.903 19.0455ZM148.206 25.5667L154.272 33.0177L155.343 32.1459L149.277 24.6949L148.206 25.5667ZM154.807 31.8913H152.559V33.2723H154.807V31.8913Z" fill="#37434E"/>
<defs>
<linearGradient id="paint0_linear" x1="36.9569" y1="9.64155" x2="20.2944" y2="38.3925" gradientUnits="userSpaceOnUse">
<stop offset="0.015625" stop-color="#81F0FF"/>
<stop offset="0.994792" stop-color="#00C2FF"/>
</linearGradient>
<linearGradient id="paint1_linear" x1="36.9569" y1="9.64155" x2="20.2944" y2="38.3925" gradientUnits="userSpaceOnUse">
<stop offset="0.015625" stop-color="#81F0FF"/>
<stop offset="0.994792" stop-color="#00C2FF"/>
</linearGradient>
</defs>
</svg>
