<svg width="48" height="53" viewBox="0 0 48 53" fill="none" xmlns="http://www.w3.org/2000/svg">
<path d="M11.5805 4.2015C22.3484 -0.9214 29.8613 10.7118 29.1737 16.6968C28.096 26.0792 33.5212 27.9293 41.0563 29.1718C47.7587 30.2769 52.1125 48.0744 32.9201 49.8336C20.9248 50.9331 11.3339 41.4576 9.06878 37.7694C6.57539 33.7095 -5.76696 12.4547 11.5805 4.2015Z" fill="url(#paint0_linear)"/>
<path d="M35.6046 11.6093V16.3461H40.3414" stroke="#37434E" stroke-linecap="round" stroke-linejoin="round"/>
<path d="M35.6045 24.2415C39.9646 24.2415 43.4992 20.7069 43.4992 16.3468C43.4992 11.9866 39.9646 8.45203 35.6045 8.45203C31.2443 8.45203 27.7097 11.9866 27.7097 16.3468C27.7097 20.7069 31.2443 24.2415 35.6045 24.2415Z" stroke="#37434E" stroke-linecap="round" stroke-linejoin="round"/>
<path d="M16.6575 7.90527H9.07853C6.98567 7.90527 5.28906 9.60188 5.28906 11.6947V40.1158C5.28906 42.2087 6.98567 43.9053 9.07853 43.9053H31.8154C33.9083 43.9053 35.6048 42.2087 35.6048 40.1158V32.3522" stroke="#37434E" stroke-linecap="round" stroke-linejoin="round"/>
<path d="M16.0829 18.413L23.3344 18.413" stroke="#37434E" stroke-width="1.07094" stroke-linecap="round" stroke-linejoin="round"/>
<path d="M11.72 18.4223L11.7296 18.4116" stroke="#37434E" stroke-width="1.07094" stroke-linecap="round" stroke-linejoin="round"/>
<path d="M11.72 24.9676L11.7296 24.9569" stroke="#37434E" stroke-width="1.07094" stroke-linecap="round" stroke-linejoin="round"/>
<path d="M11.72 31.513L11.7296 31.5023" stroke="#37434E" stroke-width="1.07094" stroke-linecap="round" stroke-linejoin="round"/>
<path d="M16.0829 24.9583H26.5693" stroke="#37434E" stroke-width="1.07094" stroke-linecap="round" stroke-linejoin="round"/>
<path d="M16.0829 31.5042H29.1739" stroke="#37434E" stroke-width="1.07094" stroke-linecap="round" stroke-linejoin="round"/>
<defs>
<linearGradient id="paint0_linear" x1="-6.22205" y1="55.0723" x2="51.1232" y2="7.40042" gradientUnits="userSpaceOnUse">
<stop stop-color="#DC1875"/>
<stop offset="1" stop-color="white" stop-opacity="0"/>
</linearGradient>
</defs>
</svg>
